<svg width="384" height="384" viewBox="0 0 384 384" fill="none" xmlns="http://www.w3.org/2000/svg"><path clip-rule="evenodd" d="M344.1 128.75a230.33 230.33 0 00-8.47-76.87 5.13 5.13 0 00-3.5-3.52 230.42 230.42 0 00-76.89-8.47l-19.96-19.96a61.24 61.24 0 00-86.6 0L128.72 39.9a230.32 230.32 0 00-76.88 8.48 5.13 5.13 0 00-3.5 3.5 230.19 230.19 0 00-8.48 76.88L19.9 148.72a61.24 61.24 0 000 86.6l19.96 19.96a230.16 230.16 0 008.47 76.87 5.13 5.13 0 003.51 3.5c25.04 7.18 51.06 10 76.88 8.49l19.96 19.96a61.23 61.23 0 0086.6 0l19.96-19.96a230.23 230.23 0 0076.88-8.47 5.13 5.13 0 003.5-3.5c7.18-25.06 10-51.08 8.49-76.9l19.96-19.95a61.24 61.24 0 000-86.6l-19.96-19.97z" stroke="#FF0" stroke-width="3"/></svg>