<svg width="287" height="237" viewBox="0 0 287 237" fill="none" xmlns="http://www.w3.org/2000/svg"><g filter="url(#filter0_d_149_80492)"><rect x="11" y="11" width="366.39" height="208.26" rx="7.71" fill="#fff"/></g><path d="M33.71 42.77h3.85l4.08 9.9h.17l4.05-9.92h3.85l.02 14.76H46.7l-.01-9.6h-.12l-3.8 9.54H40.7l-3.83-9.57h-.13l.02 9.65h-3.03l-.02-14.76zm23.54 14.94a5.67 5.67 0 01-2.9-.7 4.88 4.88 0 01-1.9-2 6.45 6.45 0 01-.66-3c0-1.14.22-2.14.66-3a4.82 4.82 0 011.88-2 5.63 5.63 0 012.9-.73c1.12 0 2.08.24 2.9.72a4.81 4.81 0 011.89 2c.44.85.66 1.85.67 3 0 1.13-.22 2.13-.66 2.99a4.87 4.87 0 01-1.89 2c-.8.48-1.77.72-2.9.72zm0-2.38c.52 0 .94-.14 1.28-.43.34-.3.6-.7.77-1.2.18-.5.27-1.08.27-1.72 0-.64-.1-1.22-.27-1.72-.18-.5-.44-.9-.78-1.2-.34-.3-.76-.44-1.27-.44-.52 0-.95.15-1.3.45-.35.29-.6.69-.78 1.2a5.3 5.3 0 00-.26 1.72c0 .64.09 1.21.26 1.72.18.5.44.9.79 1.2.35.28.78.42 1.3.42zm10.5-4.25l.01 6.4h-3.07l-.02-11.06h2.93v1.94h.13c.25-.64.66-1.15 1.23-1.53a3.73 3.73 0 012.1-.57c.77 0 1.44.17 2.01.5.57.34 1.02.82 1.34 1.44.31.62.47 1.36.47 2.22l.01 7.05h-3.07v-6.5c0-.67-.17-1.2-.53-1.58a1.86 1.86 0 00-1.45-.58c-.4 0-.77.1-1.1.27-.3.18-.55.44-.72.78a2.7 2.7 0 00-.27 1.22zm15.44-4.7v2.31l-6.67.01v-2.3l6.67-.01zm-5.16-2.64h3.07l.01 10.32c0 .28.05.5.14.66.08.15.2.26.36.33.15.06.34.09.54.09a2.63 2.63 0 00.77-.1l.48 2.28-.64.17c-.28.06-.62.1-1.02.12a4.66 4.66 0 01-1.95-.3 2.72 2.72 0 01-1.29-1.04 3.22 3.22 0 01-.46-1.8l-.01-10.73zm10.47 7.31l.01 6.4h-3.07l-.02-14.76h2.98l.01 5.64h.13c.25-.65.65-1.16 1.2-1.53a3.68 3.68 0 012.1-.57c.77 0 1.44.17 2.02.5.57.33 1.02.81 1.34 1.43.32.62.48 1.37.48 2.23v7.05h-3.06l-.01-6.5c0-.68-.17-1.21-.52-1.59a1.87 1.87 0 00-1.46-.57c-.42 0-.79.1-1.1.27-.33.18-.58.44-.76.78-.17.34-.27.74-.27 1.22zm12.65-8.38l.02 14.76H98.1l-.02-14.75h3.07zm4.38 18.9a6.07 6.07 0 01-1.93-.31l.7-2.3c.35.12.68.18.96.19.3 0 .55-.06.76-.2.22-.15.4-.4.53-.74l.17-.47-3.98-11.38h3.23l2.3 8.12h.12l2.3-8.13h3.25l-4.29 12.26c-.2.6-.48 1.12-.84 1.56-.35.45-.8.8-1.33 1.03-.54.25-1.19.37-1.95.37zm18.07-4.17l-4.24-14.76h3.4l2.46 10.25h.13l2.68-10.26h2.91l2.7 10.27h.14l2.43-10.28h3.4l-4.2 14.76h-3.04l-2.82-9.64h-.12l-2.79 9.65h-3.04zm21.5.18a5.92 5.92 0 01-2.94-.69 4.75 4.75 0 01-1.89-1.97 6.52 6.52 0 01-.67-3.03c0-1.14.22-2.14.66-3a4.9 4.9 0 011.87-2.01c.8-.49 1.75-.73 2.83-.73.73 0 1.41.12 2.04.35a4.52 4.52 0 012.78 2.8 7 7 0 01.4 2.46v.85l-9.35.01v-1.9l6.45-.01c0-.44-.1-.83-.29-1.17-.19-.35-.46-.61-.8-.8-.33-.2-.72-.3-1.17-.3-.47 0-.88.11-1.24.33-.36.21-.63.5-.84.86-.2.35-.3.75-.3 1.19v1.8c0 .55.1 1.03.3 1.43.21.4.5.7.88.92.37.21.82.32 1.33.32.34 0 .65-.05.94-.15a1.9 1.9 0 001.19-1.14l2.83.19a3.88 3.88 0 01-.88 1.78c-.44.51-1.01.9-1.71 1.19-.7.28-1.5.42-2.42.42zm7.15-.23l-.03-14.76h3.07l.01 5.55h.1c.13-.3.32-.6.58-.91.26-.31.6-.57 1-.78a4.16 4.16 0 015.43 2.2c.41.84.62 1.9.62 3.17 0 1.23-.2 2.28-.6 3.13a4.14 4.14 0 01-3.89 2.58c-.59 0-1.1-.1-1.51-.3-.41-.2-.75-.44-1.02-.74-.26-.3-.46-.6-.6-.91h-.14v1.77h-3.03zm3-5.54c0 .66.09 1.24.27 1.73.18.49.45.87.8 1.14a2 2 0 001.25.4c.5 0 .93-.14 1.27-.41.35-.28.6-.66.79-1.15.18-.5.27-1.07.27-1.71 0-.64-.1-1.2-.27-1.69a2.51 2.51 0 00-.79-1.14 2 2 0 00-1.28-.4c-.5 0-.92.13-1.26.4-.34.26-.6.63-.79 1.12a4.86 4.86 0 00-.27 1.71zm19.04-2.4l-2.81.18a1.45 1.45 0 00-.31-.65c-.16-.2-.37-.36-.63-.47a2.13 2.13 0 00-.92-.18c-.47 0-.87.1-1.2.3-.33.2-.49.47-.49.8 0 .26.1.49.32.67.21.18.57.33 1.09.44l2 .4c1.08.22 1.88.57 2.41 1.06.53.49.8 1.13.8 1.93 0 .73-.22 1.36-.64 1.91-.42.55-1 .98-1.74 1.29-.74.3-1.59.45-2.55.45-1.46 0-2.63-.3-3.5-.9a3.57 3.57 0 01-1.53-2.51l3.02-.16c.1.44.32.78.67 1.02.35.23.8.34 1.35.34.53 0 .97-.1 1.3-.31.32-.21.5-.48.5-.82 0-.27-.13-.5-.36-.68a2.54 2.54 0 00-1.06-.42l-1.92-.37a4.59 4.59 0 01-2.42-1.13 2.79 2.79 0 01-.79-2.03c0-.71.2-1.33.58-1.84a3.7 3.7 0 011.63-1.2c.7-.27 1.53-.41 2.48-.42 1.4 0 2.5.3 3.3.89.8.59 1.28 1.39 1.42 2.4zm2.2 7.9l-.02-11.06h3.07l.02 11.06h-3.07zm1.52-12.5c-.46.01-.85-.14-1.18-.44a1.47 1.47 0 010-2.2c.33-.3.72-.46 1.17-.46.46 0 .85.16 1.17.46a1.46 1.46 0 010 2.2c-.32.3-.7.45-1.16.45zm9.88 1.42v2.3l-6.67.02v-2.3l6.66-.02zm-5.16-2.64h3.07l.01 10.31c0 .29.05.5.13.67.1.15.21.26.37.32.15.06.34.1.54.1a2.65 2.65 0 00.77-.11l.48 2.28-.64.17c-.28.07-.62.1-1.02.12a4.66 4.66 0 01-1.95-.29 2.72 2.72 0 01-1.29-1.05 3.22 3.22 0 01-.46-1.8l-.01-10.72zm12.1 13.92a5.92 5.92 0 01-2.94-.7 4.74 4.74 0 01-1.9-1.96 6.52 6.52 0 01-.66-3.04c0-1.13.21-2.13.66-3a4.9 4.9 0 011.86-2c.8-.49 1.75-.73 2.84-.73.73 0 1.4.11 2.04.35a4.52 4.52 0 012.77 2.8 7 7 0 01.4 2.46v.84l-9.35.02v-1.9l6.46-.01c0-.45-.1-.84-.3-1.18-.19-.34-.45-.6-.8-.8-.33-.2-.72-.3-1.17-.3-.46.01-.88.12-1.24.34-.35.2-.63.5-.83.85-.2.36-.3.76-.31 1.2v1.8c0 .55.1 1.02.3 1.42.22.4.5.7.88.92.38.22.82.33 1.34.32.34 0 .65-.04.93-.14s.53-.24.73-.43c.2-.2.35-.43.46-.71l2.84.18a3.88 3.88 0 01-.88 1.8c-.45.5-1.02.9-1.72 1.18-.7.27-1.5.42-2.41.42zM36.4 66.77L40 77.97h.13l3.56-11.21h3.46l-5.07 14.76h-4.02l-5.11-14.75h3.46zM48.9 81.5l-.02-11.07h3.07l.02 11.06H48.9zM50.41 69c-.45 0-.84-.15-1.17-.45-.32-.31-.48-.68-.49-1.1 0-.43.16-.79.49-1.1.32-.3.71-.46 1.17-.46.46 0 .85.16 1.17.46.33.3.49.67.49 1.09 0 .43-.16.8-.49 1.1-.32.3-.7.46-1.17.46zm13.2 4.56l-2.8.18a1.45 1.45 0 00-.31-.65c-.16-.2-.37-.35-.63-.47a2.13 2.13 0 00-.92-.17c-.47 0-.87.1-1.2.3-.33.2-.49.46-.49.8 0 .26.1.48.32.66.21.19.58.33 1.09.44l2 .4c1.08.22 1.88.58 2.41 1.07.53.48.8 1.13.8 1.93 0 .72-.21 1.36-.64 1.9-.42.55-1 .98-1.74 1.3-.74.3-1.59.45-2.55.45a6 6 0 01-3.5-.91 3.57 3.57 0 01-1.52-2.5l3.01-.17c.1.45.32.79.67 1.02.35.23.8.35 1.35.35.54 0 .97-.1 1.3-.31.33-.22.5-.49.5-.82 0-.28-.13-.5-.36-.68a2.54 2.54 0 00-1.06-.42l-1.92-.38A4.6 4.6 0 0155 75.77a2.79 2.79 0 01-.79-2.04c0-.71.2-1.32.58-1.84a3.7 3.7 0 011.63-1.19c.7-.28 1.53-.42 2.48-.42 1.4 0 2.5.3 3.3.88.81.6 1.28 1.4 1.42 2.41zm2.2 7.91l-.01-11.07h3.07l.02 11.07h-3.07zm1.53-12.5c-.46 0-.85-.15-1.18-.45-.32-.3-.48-.67-.48-1.1 0-.42.16-.79.48-1.09.33-.3.72-.46 1.17-.46.46 0 .85.15 1.17.46a1.46 1.46 0 010 2.2c-.32.3-.7.44-1.16.44zm9.88 1.42v2.3l-6.67.01v-2.3l6.67-.01zm-5.16-2.65h3.07l.02 10.32c0 .28.04.5.13.66.08.15.2.26.36.32.16.07.34.1.54.1a2.62 2.62 0 00.77-.1l.48 2.28-.64.17c-.28.06-.62.1-1.02.12a4.66 4.66 0 01-1.95-.3 2.71 2.71 0 01-1.29-1.04 3.22 3.22 0 01-.45-1.8l-.02-10.73zm12.06 13.92a5.67 5.67 0 01-2.91-.7 4.88 4.88 0 01-1.88-2 6.45 6.45 0 01-.67-3c0-1.14.22-2.14.66-3a4.82 4.82 0 011.88-2 5.63 5.63 0 012.9-.73c1.12 0 2.08.24 2.9.72a4.81 4.81 0 011.89 2c.44.85.66 1.85.67 3 0 1.13-.22 2.13-.66 2.99a4.87 4.87 0 01-1.89 2c-.81.48-1.78.72-2.9.72zm0-2.38c.52 0 .94-.14 1.28-.43.34-.3.6-.7.77-1.2.18-.5.27-1.08.26-1.72 0-.64-.09-1.22-.26-1.72-.18-.5-.44-.9-.78-1.2-.34-.3-.76-.44-1.27-.44-.52 0-.95.15-1.3.45-.35.29-.6.69-.78 1.2a5.3 5.3 0 00-.26 1.72c0 .64.09 1.21.26 1.72.18.5.44.9.79 1.2.35.28.78.42 1.3.42zm7.44 2.15l-.02-11.06h2.98v1.92h.12a2.67 2.67 0 012.66-2.1 4.61 4.61 0 01.96.11v2.73a5.38 5.38 0 00-1.3-.16c-.45 0-.85.1-1.2.3a2.17 2.17 0 00-1.14 2l.01 6.26h-3.07zm17.5-7.93l-2.8.17a1.46 1.46 0 00-.32-.65c-.16-.2-.37-.35-.63-.46a2.13 2.13 0 00-.91-.18c-.48 0-.88.1-1.2.3-.33.2-.5.46-.5.8 0 .26.11.48.32.67.22.18.58.32 1.1.43l2 .4c1.07.22 1.88.58 2.4 1.07.53.49.8 1.13.8 1.93 0 .72-.21 1.36-.64 1.9-.42.56-1 .99-1.74 1.3-.73.3-1.58.45-2.54.45a6 6 0 01-3.5-.9 3.56 3.56 0 01-1.53-2.51l3.02-.17c.09.45.31.79.66 1.03.35.23.8.34 1.35.34.54 0 .97-.1 1.3-.31.33-.21.5-.49.5-.82 0-.28-.12-.5-.35-.68a2.54 2.54 0 00-1.07-.42l-1.92-.38a4.59 4.59 0 01-2.41-1.12 2.79 2.79 0 01-.8-2.04c0-.7.2-1.32.58-1.83.39-.52.93-.92 1.63-1.2.71-.28 1.54-.42 2.48-.42 1.4 0 2.5.3 3.3.88.81.6 1.29 1.4 1.42 2.42z" fill="#171A22"/><path d="M74.93 140.5c-12.86-1.09-33.7 8.5-42.5 13.43v33.15h322.44V85.84c-17.11 15.68-21.77 10.75-32.14 9.86-10.37-.9-11.93 11.64-30.07 20.6-15.03 7.42-28-.45-36.8 0-10.37.53-12.45 11.65-22.82 10.75-8.3-.71-8.81-7.16-18.66-7.61-8.81-.4-19.7 13.88-30.07 12.99-10.37-.9-19.18 12.54-28 12.99-8.8.45-7.77-8.96-19.17-8.96-14 0-21.26 17.92-31.1 20.16C93 159.58 91 141.83 74.92 140.49z" fill="#2BB3FF" fill-opacity=".2"/><path fill="#000" fill-opacity=".06" d="M32.42 84.91h322.45v1.11H32.42zM32.42 135.91h322.45v1.11H32.42zM32.42 187.07h322.45v1.11H32.42z"/><path d="M32.42 154.07c8.81-4.94 29.65-14.53 42.51-13.46 16.07 1.35 18.07 19.12 31.1 16.15 9.85-2.24 17.11-20.18 31.1-20.18 11.41 0 10.38 9.41 19.19 8.97 8.81-.45 17.63-13.9 28-13.01 10.36.9 21.25-13.4 30.06-13 9.85.44 10.37 6.9 18.66 7.62 10.37.9 12.45-10.24 22.81-10.77 8.82-.45 21.78 7.44 36.8 0 18.15-8.97 19.7-21.52 30.08-20.63 10.37.9 15.03 5.83 32.14-9.87" stroke="#2BB3FF" stroke-width="3.01"/><defs><filter id="filter0_d_149_80492" x=".2" y=".2" width="394.16" height="236.03" filterUnits="userSpaceOnUse" color-interpolation-filters="sRGB"><feFlood flood-opacity="0" result="BackgroundImageFix"/><feColorMatrix in="SourceAlpha" values="0 0 0 0 0 0 0 0 0 0 0 0 0 0 0 0 0 0 127 0" result="hardAlpha"/><feOffset dx="3.09" dy="3.09"/><feGaussianBlur stdDeviation="6.94"/><feColorMatrix values="0 0 0 0 0.537255 0 0 0 0 0.552941 0 0 0 0 0.603922 0 0 0 0.3 0"/><feBlend in2="BackgroundImageFix" result="effect1_dropShadow_149_80492"/><feBlend in="SourceGraphic" in2="effect1_dropShadow_149_80492" result="shape"/></filter></defs></svg>