<svg width="252" height="157" viewBox="0 0 252 157" fill="none" xmlns="http://www.w3.org/2000/svg"><path d="M2.73 23V1.92h6.83c6.32 0 10.54 4.47 10.54 10.48 0 6.1-4.22 10.6-10.54 10.6H2.73zM9.56 5.46H6.58v14h2.98c3.93 0 6.55-2.81 6.55-7.03 0-4.19-2.62-6.97-6.55-6.97zM30 8.6c4.33 0 7.5 3.12 7.5 7.33 0 4.25-3.17 7.34-7.5 7.34s-7.5-3.1-7.5-7.34c0-4.21 3.17-7.33 7.5-7.33zm0 3.26c-2.3 0-3.8 1.63-3.8 4.07 0 2.48 1.5 4.1 3.8 4.1 2.28 0 3.8-1.62 3.8-4.1 0-2.44-1.52-4.07-3.8-4.07zm32.11-4.72l-3.88 1a3.8 3.8 0 00-3.96-3.14c-2.4 0-3.77.98-3.77 2.61 0 1.94 2.2 2.36 4.67 2.93 3.26.7 7 1.74 7 6.24 0 3.99-3.2 6.5-7.9 6.5-4.73 0-7.56-2.17-8.6-6.02l3.9-1.07c.6 2.58 2.3 3.65 4.73 3.65 2.19 0 3.93-.87 3.93-2.92 0-2-2.14-2.42-4.58-2.95-3.29-.7-7.14-1.55-7.14-6.19 0-3.6 3.46-6.15 7.79-6.15 4.13 0 6.88 1.96 7.81 5.5zM66.09 23V1.92h13.94v3.45h-10.1v4.92h6.98v3.46h-6.97v5.8H80.3V23H66.09zm15.37-10.54c0-6.27 4.4-10.82 10.65-10.82 6.24 0 10.65 4.55 10.65 10.82 0 6.24-4.41 10.82-10.65 10.82S81.46 18.7 81.46 12.46zm17.31 0c0-4.39-2.64-7.28-6.66-7.28s-6.66 2.9-6.66 7.28c0 4.38 2.64 7.28 6.66 7.28s6.66-2.9 6.66-7.28zm8.3 15.1h-2.96l1.88-8.55h3.94l-2.87 8.54zM119.91 23V1.92h8.29c4.33 0 7.22 2.8 7.22 6.72 0 3.85-2.9 6.71-7.22 6.71h-4.44V23h-3.85zm8.23-17.63h-4.38v6.53h4.38c2.11 0 3.46-1.27 3.46-3.26 0-2.03-1.35-3.27-3.46-3.27zM139.38 23V1.92h8.3c4.32 0 7.22 2.8 7.22 6.72 0 3.85-2.9 6.71-7.23 6.71h-4.44V23h-3.85zm8.24-17.63h-4.39v6.53h4.39c2.1 0 3.45-1.27 3.45-3.26 0-2.03-1.34-3.27-3.45-3.27zm9.71 7.09c0-6.02 4.16-10.82 10.46-10.82 4.75 0 8.32 2.64 9.36 6.94l-3.85 1.07c-.7-2.79-2.5-4.47-5.51-4.47-4.13 0-6.47 3.37-6.47 7.28 0 3.93 2.22 7.28 6.44 7.28 3.06 0 5.09-1.72 5.74-4.44l3.85 1.07c-1.3 4.44-4.81 6.91-9.59 6.91-6.58 0-10.43-4.75-10.43-10.82zm24.15 15.1h-2.95l1.88-8.55h3.94l-2.87 8.54zM.98 46.96a7.15 7.15 0 017.37-7.36c3.43 0 5.96 2.02 6.6 5.03l-3.54.65a3.01 3.01 0 00-3.09-2.42c-2.14 0-3.63 1.57-3.63 4.1 0 2.5 1.44 4.08 3.57 4.08 1.78 0 2.93-.96 3.27-2.45l3.5.6c-.5 2.89-3.2 5.08-6.74 5.08-4.21 0-7.3-3.1-7.3-7.3zm23.16-7.36c4.33 0 7.5 3.12 7.5 7.33 0 4.25-3.17 7.34-7.5 7.34s-7.5-3.1-7.5-7.34c0-4.21 3.17-7.33 7.5-7.33zm0 3.26c-2.3 0-3.8 1.63-3.8 4.07 0 2.48 1.5 4.1 3.8 4.1 2.27 0 3.8-1.62 3.8-4.1 0-2.44-1.53-4.07-3.8-4.07zM34.66 54V39.92h3.2l.2 1.37a4.58 4.58 0 013.58-1.68c1.65 0 3.12.7 3.99 2.08a5.2 5.2 0 014.21-2.08c2.76 0 5 1.88 5 5.48V54h-3.53v-8.63c0-1.63-.9-2.47-2.25-2.47-1.27 0-2.53.61-2.53 2.47V54h-3.54v-8.63c0-1.63-.9-2.47-2.25-2.47-1.24 0-2.53.61-2.53 2.47V54h-3.55zm24-14.08h3.2l.23 1.66a5.76 5.76 0 014.41-1.97c3.94 0 6.92 3.12 6.92 7.33 0 4.25-2.98 7.34-6.92 7.34a5.83 5.83 0 01-4.27-1.77v7.67h-3.57V39.92zm7.3 2.95c-2.27 0-3.73 1.63-3.73 4.07 0 2.48 1.46 4.1 3.74 4.1 2.27 0 3.76-1.62 3.76-4.1 0-2.44-1.49-4.07-3.76-4.07zm16.87 11.41c-4.67 0-7.45-3.06-7.45-7.25 0-4.27 3-7.42 7.28-7.42 4.13 0 7 2.78 7 6.83 0 .5-.06 1.07-.17 1.6H79c.37 2.2 1.8 3.18 3.83 3.18 1.85 0 2.92-.82 3.4-2.03l3.29.68c-.85 2.78-3.3 4.41-6.7 4.41zm-.17-11.72c-1.63 0-3.04.87-3.54 2.75h6.8c-.31-1.8-1.46-2.75-3.26-2.75zm8.2-.56l5.26-5.29h.96v3.2h4.9v3.1h-4.9V49c0 1.46.73 2.02 2 2.02.61 0 1.2-.17 1.9-.48l.8 2.93a7.84 7.84 0 01-3.5.81c-2.97 0-4.74-1.66-4.74-4.47v-6.8h-2.67V42zm13.22-6.44c0-1.24.9-2.14 2.17-2.14 1.23 0 2.13.9 2.13 2.14 0 1.2-.9 2.1-2.16 2.1-1.24 0-2.14-.9-2.14-2.1zm.37 18.44V39.92h3.57V54h-3.57zm5.77-12l5.26-5.29h.95v3.2h4.9v3.1h-4.9V49c0 1.46.73 2.02 2 2.02.62 0 1.2-.17 1.91-.48l.79 2.93a7.84 7.84 0 01-3.49.81c-2.98 0-4.75-1.66-4.75-4.47v-6.8h-2.67V42zM130 39.6c4.33 0 7.5 3.13 7.5 7.34 0 4.25-3.17 7.34-7.5 7.34s-7.5-3.1-7.5-7.34c0-4.21 3.17-7.33 7.5-7.33zm0 3.27c-2.3 0-3.8 1.63-3.8 4.07 0 2.48 1.5 4.1 3.8 4.1 2.28 0 3.8-1.62 3.8-4.1 0-2.44-1.52-4.07-3.8-4.07zM140.52 54V39.92h3.31l.23 1.66a4.49 4.49 0 013.85-1.92c.5 0 .84.06 1.4.2l-.41 3.49c-.51-.14-1.02-.2-1.47-.2-1.88 0-3.34 1.3-3.34 3.57V54h-3.57zM2.05 85V70.92h3.32l.22 1.66a4.49 4.49 0 013.86-1.92c.5 0 .84.06 1.4.2l-.42 3.49c-.5-.14-1.01-.2-1.46-.2-1.89 0-3.35 1.3-3.35 3.57V85H2.05zm17.25.28c-4.66 0-7.45-3.06-7.45-7.25 0-4.27 3.01-7.42 7.29-7.42 4.13 0 7 2.78 7 6.83 0 .5-.06 1.07-.17 1.6H15.48c.37 2.2 1.8 3.18 3.82 3.18 1.86 0 2.93-.82 3.4-2.03l3.3.68c-.85 2.78-3.3 4.41-6.7 4.41zm-.16-11.72c-1.64 0-3.04.87-3.55 2.75h6.8c-.3-1.8-1.46-2.75-3.25-2.75zm15.1 11.72c-3.16 0-5.63-1.2-6.42-4.22l3.63-.73c.28 1.47 1.32 2.08 2.78 2.08 1.44 0 2.3-.56 2.3-1.57 0-1.07-1.51-1.2-3.2-1.52-2.27-.36-4.94-.98-4.94-4.21 0-2.62 2.47-4.5 5.87-4.5 3.18 0 5.09 1.4 5.9 3.9l-3.51.74c-.28-1.21-1.12-1.78-2.39-1.78-1.4 0-2.25.62-2.25 1.47 0 1.04 1.3 1.26 2.9 1.51 2.36.4 5.28.88 5.28 4.16 0 2.68-1.97 4.67-5.96 4.67zm15.1 0c-4.67 0-7.45-3.06-7.45-7.25 0-4.27 3-7.42 7.28-7.42 4.13 0 7 2.78 7 6.83 0 .5-.06 1.07-.17 1.6H45.5c.37 2.2 1.8 3.18 3.83 3.18 1.85 0 2.92-.82 3.4-2.03l3.29.68c-.85 2.78-3.3 4.41-6.7 4.41zm-.17-11.72c-1.63 0-3.04.87-3.54 2.75h6.8c-.31-1.8-1.46-2.75-3.26-2.75zM67.8 85l-.23-1.97a5.58 5.58 0 01-4.64 2.25c-2.53 0-4.55-1.46-4.55-4.16 0-2.9 2.47-4.02 5.45-4.7l3.6-.8c-.3-1.44-1.3-2.03-2.73-2.03-1.63 0-2.67.7-3.03 2.16l-3.37-.62c.67-2.67 2.92-4.52 6.46-4.52 3.74 0 6.19 1.97 6.19 5.9V85H67.8zM62 80.9c0 .95.65 1.46 1.7 1.46 1.88 0 3.82-1.21 3.82-3.77v-.34l-3.49.87c-1.2.29-2.02.7-2.02 1.78zM74.78 85V70.92h3.32l.22 1.66a4.49 4.49 0 013.85-1.92c.51 0 .85.06 1.41.2l-.42 3.49c-.5-.14-1.01-.2-1.46-.2-1.89 0-3.35 1.3-3.35 3.57V85h-3.57zm9.8-7.03a7.15 7.15 0 017.37-7.36c3.43 0 5.96 2.02 6.6 5.03l-3.54.65a3.01 3.01 0 00-3.09-2.42c-2.14 0-3.63 1.57-3.63 4.1 0 2.5 1.44 4.08 3.57 4.08 1.78 0 2.93-.96 3.27-2.45l3.5.6c-.5 2.89-3.2 5.08-6.74 5.08-4.21 0-7.3-3.1-7.3-7.3zM101.3 85V63.92h3.57v8.26a5.65 5.65 0 014-1.57c2.97 0 5.53 2.02 5.53 5.9V85h-3.54v-7.93c0-2.1-1.21-3.17-2.87-3.17-1.49 0-3.12.81-3.12 3.17V85h-3.57zm18.32 4.55h-2.96l1.89-8.54h3.93l-2.86 8.54zm11.11-11.58a7.15 7.15 0 017.37-7.36c3.42 0 5.95 2.02 6.6 5.03l-3.54.65a3.01 3.01 0 00-3.1-2.42c-2.13 0-3.62 1.57-3.62 4.1 0 2.5 1.43 4.08 3.57 4.08 1.77 0 2.92-.96 3.26-2.45l3.52.6c-.51 2.89-3.2 5.08-6.75 5.08-4.22 0-7.31-3.1-7.31-7.3zm23.15-7.36c4.33 0 7.5 3.12 7.5 7.33 0 4.25-3.17 7.34-7.5 7.34s-7.5-3.1-7.5-7.34c0-4.21 3.17-7.33 7.5-7.33zm0 3.26c-2.3 0-3.8 1.63-3.8 4.07 0 2.48 1.5 4.1 3.8 4.1 2.28 0 3.8-1.62 3.8-4.1 0-2.44-1.52-4.07-3.8-4.07zM164.4 85V70.92h3.2l.23 1.4a5.65 5.65 0 014.13-1.71c2.98 0 5.54 2.02 5.54 5.9V85h-3.54v-7.93c0-2.1-1.21-3.17-2.87-3.17-1.49 0-3.12.78-3.12 3.17V85h-3.57zm14.97-12l5.26-5.29h.96v3.2h4.89v3.1h-4.9V80c0 1.46.74 2.02 2 2.02.62 0 1.2-.17 1.91-.48l.79 2.93a7.84 7.84 0 01-3.49.81c-2.98 0-4.75-1.66-4.75-4.47v-6.8h-2.67V73zm19.72 12.28c-4.67 0-7.46-3.06-7.46-7.25 0-4.27 3.01-7.42 7.29-7.42 4.13 0 7 2.78 7 6.83a8 8 0 01-.17 1.6h-10.49c.37 2.2 1.8 3.18 3.83 3.18 1.85 0 2.92-.82 3.4-2.03l3.28.68c-.84 2.78-3.28 4.41-6.69 4.41zm-.17-11.72c-1.63 0-3.04.87-3.55 2.75h6.8c-.3-1.8-1.45-2.75-3.25-2.75zM209.04 85V70.92h3.2l.23 1.4a5.64 5.64 0 014.13-1.71c2.98 0 5.54 2.02 5.54 5.9V85h-3.54v-7.93c0-2.1-1.21-3.17-2.87-3.17-1.5 0-3.12.78-3.12 3.17V85h-3.57zM224 73l5.25-5.29h.96v3.2h4.9v3.1h-4.9V80c0 1.46.73 2.02 2 2.02.62 0 1.2-.17 1.9-.48l.8 2.93a7.84 7.84 0 01-3.49.81c-2.98 0-4.75-1.66-4.75-4.47v-6.8H224V73zM14.22 99.67c0 2.44-1.9 4.24-3.96 5.42l3.71 4.33a15 15 0 001.07-3.93l3.26.56a14.94 14.94 0 01-2.1 5.96l3.4 3.99h-4.2l-1.4-1.57a9.14 9.14 0 01-5.7 1.85c-4.3 0-7.1-2.22-7.1-6.16 0-2.33 1.1-4.16 3.89-5.76-1.27-1.38-2.2-2.84-2.2-4.64 0-2.92 2.42-5.08 5.74-5.08 3.29 0 5.6 2.1 5.6 5.03zm-7.73.17c0 1.23.85 2.1 1.66 3 1.86-1 2.5-1.82 2.5-3 0-1.21-.73-2.06-2.05-2.06-1.26 0-2.1.8-2.1 2.06zm-1.54 10c0 2.08 1.54 3.18 3.85 3.18 1.24 0 2.28-.3 3.12-.93l-4.75-5.4c-1.86.99-2.22 2.14-2.22 3.15zm28.07 6.44c-3.14 0-5.62-1.2-6.4-4.22l3.62-.73c.28 1.47 1.32 2.08 2.78 2.08 1.44 0 2.3-.56 2.3-1.57 0-1.07-1.5-1.2-3.2-1.52-2.27-.36-4.94-.98-4.94-4.21 0-2.62 2.47-4.5 5.87-4.5 3.18 0 5.09 1.4 5.9 3.9l-3.5.74c-.29-1.21-1.13-1.78-2.4-1.78-1.4 0-2.25.62-2.25 1.47 0 1.04 1.3 1.26 2.9 1.51 2.36.4 5.28.88 5.28 4.16 0 2.67-1.96 4.67-5.96 4.67zm15.16-14.67c4.33 0 7.51 3.12 7.51 7.33 0 4.25-3.18 7.34-7.5 7.34-4.33 0-7.51-3.1-7.51-7.34 0-4.21 3.18-7.33 7.5-7.33zm0 3.26c-2.3 0-3.8 1.63-3.8 4.07 0 2.48 1.5 4.1 3.8 4.1 2.28 0 3.8-1.62 3.8-4.1 0-2.44-1.52-4.07-3.8-4.07zm9.46 4.1a7.15 7.15 0 017.37-7.36c3.43 0 5.96 2.02 6.6 5.03l-3.54.65a3.01 3.01 0 00-3.09-2.42c-2.14 0-3.63 1.57-3.63 4.1 0 2.5 1.44 4.08 3.57 4.08 1.78 0 2.93-.96 3.27-2.45l3.5.6c-.5 2.89-3.2 5.08-6.74 5.08-4.21 0-7.3-3.1-7.3-7.3zM74 97.56c0-1.24.9-2.14 2.17-2.14 1.24 0 2.14.9 2.14 2.14 0 1.2-.9 2.1-2.17 2.1-1.24 0-2.14-.9-2.14-2.1zm.37 18.44v-14.08h3.57V116h-3.57zm16.23 0l-.22-1.97a5.57 5.57 0 01-4.64 2.25c-2.53 0-4.56-1.46-4.56-4.16 0-2.9 2.48-4.02 5.46-4.7l3.6-.8c-.31-1.44-1.3-2.03-2.73-2.03-1.63 0-2.67.7-3.04 2.16l-3.37-.62c.67-2.67 2.92-4.52 6.47-4.52 3.73 0 6.18 1.97 6.18 5.9V116h-3.15zm-5.79-4.1c0 .95.65 1.46 1.69 1.46 1.88 0 3.82-1.21 3.82-3.77v-.34l-3.49.88c-1.2.28-2.02.7-2.02 1.77zm12.76 4.1V94.92h3.57V116h-3.57z" fill="#fff"/><path d="M111.05 97.56c0-1.24.9-2.14 2.17-2.14 1.23 0 2.14.9 2.14 2.14 0 1.2-.9 2.1-2.17 2.1-1.24 0-2.14-.9-2.14-2.1zm.37 18.44v-14.08h3.57V116h-3.57zm7.69 0v-14.08h3.2l.22 1.4a5.65 5.65 0 014.14-1.71c2.98 0 5.54 2.02 5.54 5.9V116h-3.55v-7.93c0-2.1-1.2-3.17-2.86-3.17-1.5 0-3.12.78-3.12 3.17V116h-3.57zm23.05 0V94.92h3.58V116h-3.58zm14.07.28c-4.66 0-7.45-3.06-7.45-7.25 0-4.27 3.01-7.42 7.28-7.42 4.14 0 7 2.78 7 6.83 0 .5-.05 1.07-.16 1.6H152.4c.37 2.2 1.8 3.18 3.82 3.18 1.86 0 2.93-.82 3.4-2.03l3.3.68c-.85 2.78-3.3 4.41-6.7 4.41zm-.17-11.72c-1.63 0-3.03.87-3.54 2.75h6.8c-.3-1.8-1.46-2.75-3.26-2.75zm15.1 11.72c-3.15 0-5.62-1.2-6.4-4.22l3.62-.73c.28 1.47 1.32 2.08 2.78 2.08 1.44 0 2.3-.56 2.3-1.57 0-1.07-1.51-1.2-3.2-1.52-2.28-.36-4.95-.98-4.95-4.21 0-2.62 2.48-4.5 5.88-4.5 3.18 0 5.09 1.4 5.9 3.9l-3.51.74c-.28-1.21-1.13-1.78-2.4-1.78-1.4 0-2.24.62-2.24 1.47 0 1.04 1.3 1.26 2.9 1.51 2.36.4 5.28.88 5.28 4.16 0 2.67-1.97 4.67-5.96 4.67zm13.7 0c-3.15 0-5.62-1.2-6.41-4.22l3.63-.73c.28 1.47 1.32 2.08 2.78 2.08 1.43 0 2.3-.56 2.3-1.57 0-1.07-1.51-1.2-3.2-1.52-2.28-.36-4.95-.98-4.95-4.21 0-2.62 2.48-4.5 5.88-4.5 3.17 0 5.09 1.4 5.9 3.9l-3.51.74c-.28-1.21-1.13-1.78-2.4-1.78-1.4 0-2.24.62-2.24 1.47 0 1.04 1.3 1.26 2.9 1.51 2.36.4 5.28.88 5.28 4.16 0 2.67-1.97 4.67-5.96 4.67zM.14 135l5.26-5.29h.95v3.2h4.9v3.1h-4.9V142c0 1.46.73 2.02 2 2.02.62 0 1.2-.17 1.91-.48l.79 2.93a7.84 7.84 0 01-3.49.81c-2.98 0-4.75-1.66-4.75-4.47v-6.8H.14V135zm13.21-6.44c0-1.24.9-2.14 2.17-2.14 1.23 0 2.13.9 2.13 2.14 0 1.2-.9 2.1-2.16 2.1-1.24 0-2.14-.9-2.14-2.1zm.37 18.44v-14.08h3.57V147h-3.57zm7.69 0v-14.08h3.2l.2 1.37a4.58 4.58 0 013.57-1.68c1.66 0 3.12.7 3.99 2.08a5.2 5.2 0 014.22-2.08c2.75 0 5 1.88 5 5.48V147h-3.54v-8.63c0-1.63-.9-2.47-2.25-2.47-1.27 0-2.53.61-2.53 2.47V147h-3.54v-8.63c0-1.63-.9-2.47-2.25-2.47-1.24 0-2.53.61-2.53 2.47V147H21.4zm30.37.28c-4.67 0-7.45-3.06-7.45-7.25 0-4.27 3-7.42 7.28-7.42 4.13 0 7 2.78 7 6.83 0 .5-.06 1.07-.17 1.6H47.96c.36 2.2 1.8 3.18 3.82 3.18 1.85 0 2.92-.82 3.4-2.03l3.29.68c-.84 2.78-3.29 4.41-6.7 4.41zm-.17-11.72c-1.63 0-3.04.87-3.54 2.75h6.8c-.3-1.8-1.46-2.75-3.26-2.75z" fill="#FF0"/></svg>