<svg width="234" height="129" viewBox="0 0 234 129" fill="none" xmlns="http://www.w3.org/2000/svg"><path d="M5.43 11.95c0 4.44 2.55 7.37 6.63 7.37 3.2 0 5.73-1.83 5.79-4.53h-7.79v-3.4h11.78v1.83c0 5.76-3.96 9.61-9.8 9.61-6.14 0-10.6-4.6-10.6-10.88 0-6.21 4.5-10.76 10.62-10.76 4.72 0 8.18 2.55 9.28 6.38L17.6 8.64c-.76-2.48-2.67-3.91-5.54-3.91-3.96 0-6.63 2.84-6.63 7.22zm26.31 10.88c-4.67 0-7.45-3.06-7.45-7.25 0-4.27 3-7.42 7.28-7.42 4.13 0 7 2.78 7 6.83 0 .5-.06 1.07-.17 1.6H27.92c.36 2.2 1.8 3.18 3.82 3.18 1.85 0 2.92-.82 3.4-2.03l3.29.68c-.84 2.78-3.29 4.41-6.69 4.41zm-.17-11.72c-1.63 0-3.04.87-3.54 2.75h6.8c-.3-1.8-1.46-2.75-3.26-2.75zm8.21-.56l5.26-5.29h.95v3.2h4.9v3.1h-4.9v5.99c0 1.46.73 2.02 2 2.02.62 0 1.2-.17 1.91-.48l.79 2.93a7.84 7.84 0 01-3.49.81c-2.98 0-4.75-1.66-4.75-4.47v-6.8h-2.67v-1.01zm17.84 0l5.26-5.29h.96v3.2h4.89v3.1h-4.9v5.99c0 1.46.74 2.02 2 2.02.62 0 1.21-.17 1.91-.48l.8 2.93a7.84 7.84 0 01-3.5.81c-2.97 0-4.75-1.66-4.75-4.47v-6.8h-2.67v-1.01zm13.58 12V1.47h3.57v8.26a5.65 5.65 0 014-1.57c2.97 0 5.53 2.02 5.53 5.9v8.49h-3.54v-7.93c0-2.1-1.2-3.17-2.87-3.17-1.49 0-3.12.81-3.12 3.17v7.93H71.2zm23.27.28c-4.67 0-7.45-3.06-7.45-7.25 0-4.27 3-7.42 7.28-7.42 4.13 0 7 2.78 7 6.83a8 8 0 01-.17 1.6H90.64c.37 2.2 1.8 3.18 3.83 3.18 1.85 0 2.92-.82 3.4-2.03l3.29.68c-.85 2.78-3.3 4.41-6.7 4.41zm-.17-11.72c-1.63 0-3.04.87-3.54 2.75h6.8c-.31-1.8-1.46-2.75-3.26-2.75zM2.05 53.55V39.47h3.2l.2 1.37a4.58 4.58 0 013.57-1.68c1.66 0 3.12.7 4 2.08a5.2 5.2 0 014.21-2.08c2.76 0 5 1.88 5 5.48v8.91H18.7v-8.63c0-1.63-.9-2.47-2.25-2.47-1.26 0-2.53.61-2.53 2.47v8.63h-3.54v-8.63c0-1.63-.9-2.47-2.25-2.47-1.23 0-2.53.61-2.53 2.47v8.63H2.05zm32.54 0l-.22-1.97a5.58 5.58 0 01-4.64 2.25c-2.53 0-4.56-1.46-4.56-4.16 0-2.9 2.48-4.02 5.46-4.7l3.6-.8c-.31-1.44-1.3-2.03-2.73-2.03-1.63 0-2.67.7-3.04 2.16l-3.37-.62c.67-2.67 2.92-4.52 6.46-4.52 3.74 0 6.19 1.97 6.19 5.9v8.49h-3.15zm-5.79-4.1c0 .95.65 1.46 1.69 1.46 1.88 0 3.82-1.21 3.82-3.77v-.34l-3.49.87c-1.2.29-2.02.7-2.02 1.78zm12.75 4.1V39.47h3.32l.23 1.66a4.49 4.49 0 013.85-1.92c.5 0 .84.06 1.4.2l-.42 3.49c-.5-.14-1.01-.2-1.46-.2-1.88 0-3.34 1.3-3.34 3.57v7.28h-3.58zm20.1-14.08h4.24l-5.51 6.3 5.56 7.78h-4.13l-4.27-6.07h-1.32v6.07h-3.57V32.47h3.57v11.6h1.51l3.91-4.6zM73.8 53.83c-4.67 0-7.45-3.06-7.45-7.25 0-4.27 3-7.42 7.28-7.42 4.13 0 7 2.78 7 6.83 0 .5-.06 1.07-.17 1.6H69.97c.37 2.2 1.8 3.18 3.83 3.18 1.85 0 2.92-.82 3.4-2.03l3.29.68c-.85 2.78-3.3 4.41-6.7 4.41zm-.17-11.72c-1.63 0-3.04.87-3.55 2.75h6.8c-.3-1.8-1.45-2.75-3.25-2.75zm8.2-.56l5.26-5.29h.96v3.2h4.89v3.1h-4.9v5.99c0 1.46.74 2.02 2 2.02.62 0 1.21-.17 1.92-.48l.78 2.93a7.84 7.84 0 01-3.48.81c-2.98 0-4.75-1.66-4.75-4.47v-6.8h-2.67v-1.01zm13.22-6.44c0-1.24.9-2.14 2.16-2.14 1.24 0 2.14.9 2.14 2.14 0 1.2-.9 2.1-2.16 2.1-1.24 0-2.14-.9-2.14-2.1zm.37 18.44V39.47h3.57v14.08h-3.57zm7.68 0V39.47h3.2l.23 1.4a5.64 5.64 0 014.13-1.71c2.98 0 5.54 2.02 5.54 5.9v8.49h-3.54v-7.93c0-2.1-1.21-3.17-2.87-3.17-1.49 0-3.12.78-3.12 3.17v7.93h-3.57zm15.82-7.2c0-4.13 2.92-7.2 6.8-7.2 1.74 0 3.23.71 4.33 1.86l.22-1.54h3.2v13.85c0 3.83-2.58 6.7-7.1 6.7-4.02 0-6.41-2.09-6.9-4.81l3.6-.7c.34 1.46 1.47 2.27 3.3 2.27 2.27 0 3.56-1.2 3.56-3.2V51.8a5.92 5.92 0 01-4.21 1.71c-3.88 0-6.8-3.03-6.8-7.17zm3.7 0c0 2.36 1.47 3.94 3.66 3.94 2.2 0 3.66-1.58 3.66-3.94s-1.47-3.93-3.66-3.93c-2.2 0-3.65 1.57-3.65 3.93zM2.06 70.47h3.2l.23 1.66a5.76 5.76 0 014.41-1.97c3.94 0 6.92 3.12 6.92 7.33 0 4.25-2.98 7.34-6.92 7.34a5.83 5.83 0 01-4.27-1.77v7.67H2.05V70.47zm7.31 2.95c-2.28 0-3.74 1.63-3.74 4.07 0 2.48 1.46 4.1 3.74 4.1 2.28 0 3.77-1.62 3.77-4.1 0-2.44-1.5-4.07-3.77-4.07zm10.48 11.13V63.47h3.57v21.08h-3.57zm16.23 0l-.22-1.97a5.58 5.58 0 01-4.64 2.25c-2.53 0-4.55-1.46-4.55-4.16 0-2.9 2.47-4.02 5.45-4.7l3.6-.8c-.31-1.44-1.3-2.03-2.73-2.03-1.63 0-2.67.7-3.04 2.16l-3.37-.62c.68-2.67 2.92-4.52 6.47-4.52 3.74 0 6.18 1.97 6.18 5.9v8.49h-3.15zm-5.79-4.1c0 .95.65 1.46 1.69 1.46 1.88 0 3.82-1.21 3.82-3.77v-.34l-3.48.87c-1.21.29-2.03.7-2.03 1.78zm10.85-7.9l5.25-5.29h.96v3.2h4.89v3.1h-4.9v5.99c0 1.46.74 2.02 2 2.02.62 0 1.21-.17 1.92-.48l.78 2.93a7.84 7.84 0 01-3.48.81c-2.98 0-4.75-1.66-4.75-4.47v-6.8h-2.67v-1.01zm23.57 1h-4.64v11h-3.54v-11h-3.29v-1l1.83-2.08h1.46v-1.89c0-3.29 2.33-5.4 5.31-5.4.82 0 1.58.12 2.4.4l-.74 3c-.45-.1-.81-.22-1.3-.22-1.37 0-2.13.7-2.13 2.17v1.94h4.64v3.09zm8.5-3.4c4.32 0 7.5 3.13 7.5 7.34 0 4.25-3.18 7.34-7.5 7.34-4.34 0-7.51-3.1-7.51-7.34 0-4.21 3.17-7.33 7.5-7.33zm0 3.27c-2.31 0-3.8 1.63-3.8 4.07 0 2.48 1.49 4.1 3.8 4.1 2.27 0 3.79-1.62 3.79-4.1 0-2.44-1.52-4.07-3.8-4.07zm10.52 11.13V70.47h3.32l.22 1.66a4.49 4.49 0 013.85-1.92c.51 0 .85.06 1.4.2l-.41 3.49c-.5-.14-1.01-.2-1.46-.2-1.89 0-3.35 1.3-3.35 3.57v7.28h-3.57zm11.15 0V70.47h3.2l.2 1.37a4.58 4.58 0 013.57-1.68c1.66 0 3.12.7 3.99 2.08a5.2 5.2 0 014.22-2.08c2.75 0 5 1.88 5 5.48v8.91h-3.54v-8.63c0-1.63-.9-2.47-2.25-2.47-1.27 0-2.53.61-2.53 2.47v8.63h-3.54v-8.63c0-1.63-.9-2.47-2.25-2.47-1.24 0-2.53.61-2.53 2.47v8.63h-3.54zm28.25-12l5.26-5.29h.96v3.2h4.89v3.1h-4.9v5.99c0 1.46.74 2.02 2 2.02.62 0 1.21-.17 1.91-.48l.8 2.93a7.84 7.84 0 01-3.5.81c-2.97 0-4.75-1.66-4.75-4.47v-6.8h-2.67v-1.01zm13.58 12V63.47h3.57v8.26a5.65 5.65 0 014-1.57c2.97 0 5.53 2.02 5.53 5.9v8.49h-3.54v-7.93c0-2.1-1.2-3.17-2.87-3.17-1.49 0-3.12.81-3.12 3.17v7.93h-3.57zm25.43 0l-.22-1.97a5.58 5.58 0 01-4.64 2.25c-2.53 0-4.56-1.46-4.56-4.16 0-2.9 2.48-4.02 5.46-4.7l3.6-.8c-.31-1.44-1.3-2.03-2.73-2.03-1.63 0-2.67.7-3.04 2.16l-3.37-.62c.67-2.67 2.92-4.52 6.47-4.52 3.73 0 6.18 1.97 6.18 5.9v8.49h-3.15zm-5.79-4.1c0 .95.65 1.46 1.69 1.46 1.88 0 3.82-1.21 3.82-3.77v-.34l-3.49.87c-1.2.29-2.02.7-2.02 1.78zm10.84-7.9l5.26-5.29h.96v3.2h4.89v3.1h-4.9v5.99c0 1.46.74 2.02 2 2.02.62 0 1.21-.17 1.91-.48l.8 2.93a7.84 7.84 0 01-3.5.81c-2.97 0-4.75-1.66-4.75-4.47v-6.8h-2.67v-1.01zm18.7 4.97a7.15 7.15 0 017.36-7.36c3.42 0 5.95 2.02 6.6 5.03l-3.54.65a3.01 3.01 0 00-3.1-2.42c-2.13 0-3.62 1.57-3.62 4.1 0 2.5 1.43 4.08 3.57 4.08 1.77 0 2.92-.96 3.26-2.45l3.52.6c-.51 2.89-3.2 5.08-6.75 5.08-4.22 0-7.3-3.1-7.3-7.3zm25.25 7.03l-.22-1.97a5.58 5.58 0 01-4.64 2.25c-2.53 0-4.56-1.46-4.56-4.16 0-2.9 2.48-4.02 5.46-4.7l3.6-.8c-.31-1.44-1.3-2.03-2.73-2.03-1.63 0-2.67.7-3.04 2.16l-3.37-.62c.68-2.67 2.92-4.52 6.47-4.52 3.74 0 6.18 1.97 6.18 5.9v8.49h-3.15zm-5.79-4.1c0 .95.65 1.46 1.69 1.46 1.88 0 3.82-1.21 3.82-3.77v-.34l-3.48.87c-1.21.29-2.03.7-2.03 1.78zm12.76 4.1V70.47h3.2l.23 1.4a5.64 5.64 0 014.13-1.71c2.98 0 5.54 2.02 5.54 5.9v8.49h-3.55v-7.93c0-2.1-1.2-3.17-2.86-3.17-1.5 0-3.12.78-3.12 3.17v7.93h-3.57z" fill="#fff"/><path d="M11.05 101.47h4.24l-5.5 6.3 5.56 7.78h-4.13l-4.28-6.07H5.62v6.07H2.05V94.47h3.57v11.6h1.52l3.9-4.6zm12.15 14.36c-4.66 0-7.45-3.06-7.45-7.25 0-4.27 3.01-7.42 7.28-7.42 4.14 0 7 2.78 7 6.83 0 .5-.05 1.07-.17 1.6H19.38c.36 2.2 1.8 3.18 3.82 3.18 1.86 0 2.93-.82 3.4-2.03l3.3.68c-.85 2.78-3.3 4.41-6.7 4.41zm-.17-11.72c-1.63 0-3.03.87-3.54 2.75h6.8c-.3-1.8-1.46-2.75-3.26-2.75zm16.5 11.72c-4.66 0-7.44-3.06-7.44-7.25 0-4.27 3-7.42 7.28-7.42 4.13 0 7 2.78 7 6.83 0 .5-.06 1.07-.17 1.6H35.7c.37 2.2 1.8 3.18 3.83 3.18 1.85 0 2.92-.82 3.4-2.03l3.29.68c-.85 2.78-3.3 4.41-6.7 4.41zm-.16-11.72c-1.63 0-3.04.87-3.54 2.75h6.8c-.31-1.8-1.46-2.75-3.26-2.75zm10.12-2.64h3.2l.23 1.66a5.76 5.76 0 014.41-1.97c3.94 0 6.92 3.12 6.92 7.33 0 4.25-2.98 7.34-6.92 7.34a5.83 5.83 0 01-4.27-1.77v7.67h-3.57v-20.26zm7.3 2.95c-2.27 0-3.73 1.63-3.73 4.07 0 2.48 1.46 4.1 3.74 4.1 2.27 0 3.76-1.62 3.76-4.1 0-2.44-1.49-4.07-3.76-4.07zm19.87-2.95v8.43c0 1.77 1.01 2.67 2.78 2.67 1.38 0 2.87-.76 2.87-3v-8.1h3.54v14.08h-3.18l-.16-1.38c-.93 1.07-2.14 1.66-4.05 1.66-2.9 0-5.34-1.88-5.34-5.6v-8.76h3.54zm13.32 0h3.2l.23 1.66a5.76 5.76 0 014.41-1.97c3.94 0 6.92 3.12 6.92 7.33 0 4.25-2.98 7.34-6.92 7.34a5.83 5.83 0 01-4.27-1.77v7.67h-3.57v-20.26zm7.3 2.95c-2.27 0-3.73 1.63-3.73 4.07 0 2.48 1.46 4.1 3.74 4.1 2.28 0 3.77-1.62 3.77-4.1 0-2.44-1.5-4.07-3.77-4.07zm15-2.95h3.58l1.96 9.95 3.27-6.44h.67l3.26 6.38 1.88-9.9h3.52l-2.87 14.09h-3.71l-2.45-4.9-2.5 4.9h-3.7l-2.9-14.08zm20.24-4.36c0-1.24.9-2.14 2.17-2.14 1.23 0 2.13.9 2.13 2.14 0 1.2-.9 2.1-2.16 2.1-1.24 0-2.14-.9-2.14-2.1zm.37 18.44v-14.08h3.57v14.08h-3.57zm5.77-12l5.26-5.29h.95v3.2h4.9v3.1h-4.9v5.99c0 1.46.73 2.02 2 2.02.62 0 1.2-.17 1.91-.48l.79 2.93a7.84 7.84 0 01-3.49.81c-2.98 0-4.75-1.66-4.75-4.47v-6.8h-2.67v-1.01zm13.58 12V94.47h3.57v8.26a5.65 5.65 0 014-1.57c2.97 0 5.53 2.02 5.53 5.9v8.49h-3.54v-7.93c0-2.1-1.21-3.17-2.87-3.17-1.49 0-3.12.81-3.12 3.17v7.93h-3.57zm23.06 0V94.47h3.57v21.08h-3.57zm7.32-18.44c0-1.24.9-2.14 2.16-2.14 1.24 0 2.14.9 2.14 2.14 0 1.2-.9 2.1-2.16 2.1-1.24 0-2.14-.9-2.14-2.1zm.37 18.44v-14.08h3.57v14.08h-3.57zm17.24-11h-4.64v11h-3.54v-11h-3.29v-1l1.83-2.08h1.46v-1.89c0-3.29 2.33-5.4 5.31-5.4.82 0 1.58.12 2.4.4l-.74 3c-.45-.1-.81-.22-1.3-.22-1.37 0-2.13.7-2.13 2.17v1.94h4.64v3.09zm8.44 11.28c-4.67 0-7.45-3.06-7.45-7.25 0-4.27 3-7.42 7.28-7.42 4.13 0 7 2.78 7 6.83 0 .5-.06 1.07-.17 1.6h-10.49c.37 2.2 1.8 3.18 3.82 3.18 1.86 0 2.93-.82 3.4-2.03l3.3.68c-.85 2.78-3.3 4.41-6.7 4.41zm-.17-11.72c-1.63 0-3.04.87-3.54 2.75h6.8c-.31-1.8-1.46-2.75-3.26-2.75z" fill="#FF0"/></svg>